<svg width="45" height="44" viewBox="0 0 45 44" fill="none" xmlns="http://www.w3.org/2000/svg">
<path d="M5.56656 5.51093C5.04894 5.56832 4.5476 7.8319 4.44763 8.11149C4.25791 8.64213 4.12225 9.17085 4.0157 9.70016M4.0157 9.70016C3.77493 10.8962 3.68282 12.0953 3.45152 13.3262C2.96299 15.926 2.70744 19.3678 3.30142 21.9925C4.25107 26.1888 3.37444 30.6695 4.63867 34.7979C5.28233 36.8998 5.91148 38.3523 7.77711 39.645C9.88355 41.1046 12.003 41.8706 14.5998 41.9052C16.8605 41.9353 19.2955 42.1384 21.5385 41.8371C24.4209 41.4499 27.3111 41.0474 30.2238 41.0474C32.0422 41.0474 34.4719 41.3112 36.023 40.1896C39.8309 37.4363 41.649 31.9433 42.4568 27.5408C43.1069 23.9984 43.0837 20.1162 42.259 16.594C41.7029 14.2191 41.8172 11.2742 40.567 9.12585C39.3819 7.08948 37.0384 6.262 34.8427 5.70155C30.8634 4.68582 26.6802 4.0634 22.6233 3.42776C19.2966 2.90653 15.5154 1.38694 12.13 2.27044C10.0733 2.80717 8.3656 3.92218 6.85604 5.40201C5.53681 6.69525 4.64819 8.14559 4.0157 9.70016ZM4.0157 9.70016C3.11965 11.9025 2.73764 14.314 2.37354 16.7846M16.6257 18.6058C16.477 18.6238 16.294 18.8657 16.2106 18.969C15.5807 19.749 15.1593 20.8869 14.9459 21.9346M14.9459 21.9346C14.8901 22.2084 14.8485 22.476 14.8211 22.7295C14.606 24.7214 14.8485 26.6346 15.9454 28.362C17.7584 31.2172 23.1071 34.37 26.2542 31.5358C29.3893 28.7125 29.9159 23.2924 27.4188 19.958C26.0018 18.0658 23.7006 17.6194 21.3938 17.9688C18.6242 18.3882 16.7033 20.055 14.9459 21.9346ZM14.9459 21.9346C14.425 22.4916 13.9185 23.0673 13.4086 23.6347M34.3214 12.3833C33.7611 12.4454 33.4746 14.7611 33.9735 14.6367C34.7518 14.4425 36.0407 13.5525 36.0407 12.6284" stroke="#2B4953" stroke-width="2.93818" stroke-linecap="round"/>
</svg>
