<svg width="52" height="39" viewBox="0 0 52 39" fill="none" xmlns="http://www.w3.org/2000/svg">
<path fill-rule="evenodd" clip-rule="evenodd" d="M10.6162 0.225C7.73054 0.295163 2.37765 0.592557 1.78228 0.71594C1.53719 0.766668 1.05536 1.61968 1.05536 2.00299C1.05536 2.12946 1.14619 2.67492 1.25733 3.21509C2.04999 7.07055 2.35056 10.8906 2.34906 17.0909C2.34807 21.4005 2.25644 23.7081 1.94681 27.2205C1.71565 29.8425 1.66138 30.2346 1.23602 32.3532C0.982157 33.6177 0.924095 34.1543 0.915928 35.3108C0.906865 36.5996 0.924393 36.7483 1.11531 37.005C1.38172 37.3632 1.76495 37.5051 2.12418 37.3787C2.35115 37.2988 2.51638 37.3434 3.1229 37.6482C3.97819 38.0783 4.97292 38.3581 6.48314 38.5936C7.41523 38.7391 8.44043 38.7667 13.355 38.7785C16.532 38.7862 21.1481 38.8502 23.613 38.9207C27.0729 39.0197 29.4458 39.0247 34.0204 38.943C44.422 38.757 47.8371 38.5953 48.9905 38.2344C50.1337 37.8767 50.7969 37.1005 50.5756 36.379C50.5006 36.1344 50.5004 35.9388 50.5752 35.7128C50.6356 35.5301 50.6959 34.2172 50.7157 32.6521C50.7517 29.8203 50.8607 28.4024 51.354 24.3506C51.5128 23.0462 51.6947 21.2747 51.7581 20.4139C51.8782 18.7848 51.8264 15.6052 51.6486 13.7045C51.2785 9.74849 51.2439 8.90953 51.3561 6.59027C51.4672 4.29155 51.4088 3.03111 51.1493 2.13125C51.0296 1.71586 50.6123 1.27266 49.991 0.900915C49.1289 0.385059 49.0338 0.380674 37.4066 0.318783C18.0915 0.216031 11.8831 0.194205 10.6162 0.225ZM11.8946 2.60226C16.4432 2.77328 42.1854 2.91221 44.627 2.77886C45.5034 2.73103 46.2324 2.69893 46.2469 2.70751C46.2614 2.71608 45.9555 3.07745 45.5669 3.51059C45.1783 3.94362 44.0836 5.32954 43.1343 6.59027C41.091 9.3039 38.5299 12.2787 36.2878 14.5427C33.4996 17.3579 31.3601 18.877 29.083 19.6585C28.4046 19.8913 28.1262 19.9304 27.0988 19.9372C25.7089 19.9464 25.2479 19.8267 24.0114 19.1355C21.7111 17.8496 19.6441 15.8715 15.8925 11.3654C11.8231 6.47756 9.46942 4.13558 7.31255 2.828L6.69597 2.45426L7.38634 2.45645C7.76599 2.45765 9.79469 2.52323 11.8946 2.60226ZM5.13864 4.29593C5.92224 4.62502 6.70922 5.03434 7.02512 5.27692C8.46971 6.38686 10.9252 9.01986 14.3143 13.0935C16.6486 15.8992 17.2301 16.5582 18.6076 17.9593L19.7908 19.1628L19.1125 19.7527C17.7799 20.9115 15.7125 22.8521 13.6538 24.8761C11.441 27.0517 10.1463 28.2433 8.92315 29.23C7.81917 30.1205 4.21463 32.857 4.18485 32.8272C4.17071 32.813 4.20108 32.5773 4.25237 32.3032C4.57983 30.5525 4.65104 29.3038 4.75292 23.533C4.81089 20.2441 4.8323 16.4096 4.80033 15.0118C4.69526 10.413 4.21054 6.97198 3.18016 3.51039C3.12608 3.3288 3.13803 3.3295 3.45892 3.52594C3.64327 3.63886 4.39917 3.98538 5.13864 4.29593ZM48.7834 4.17345C48.5095 5.53604 48.591 8.33547 49.0102 11.9721C49.3746 15.1331 49.3774 15.1873 49.3247 18.1013C49.2691 21.1733 49.1049 23.1012 48.5961 26.6524C48.3666 28.2541 48.3232 28.9406 48.2868 31.5359L48.2445 34.5557L47.745 33.8282C46.8962 32.5923 46.1942 31.7844 44.1267 29.6641C43.0299 28.5395 41.6469 27.1034 41.0535 26.473C39.5204 24.8443 36.8991 22.3621 35.2414 20.9694L33.8232 19.7779L34.5941 19.1527C37.1126 17.11 43.4601 10.5349 45.2646 8.09957C45.636 7.59837 46.3878 6.5828 46.9354 5.8428C47.7723 4.71163 48.8096 3.45089 48.9033 3.45089C48.9173 3.45089 48.8632 3.77609 48.7834 4.17345ZM34.6924 22.7606C37.8245 26.022 39.97 28.4393 41.3043 30.2104C41.7172 30.7585 42.5811 31.9157 43.224 32.7818C43.8667 33.648 44.8222 34.8045 45.3473 35.3518L46.3018 36.347L42.8252 36.334C40.9131 36.3269 36.5229 36.3702 33.0693 36.4304C28.7266 36.5059 25.6703 36.5087 23.1599 36.4393C17.563 36.2847 8.65346 35.9568 6.88151 35.8404C6.0051 35.7828 5.08765 35.7257 4.84276 35.7138L4.39738 35.6919L5.06873 35.3001C6.93589 34.2105 11.3497 30.512 14.6497 27.2716C16.069 25.8781 17.8674 24.2325 18.8326 23.4445C19.7638 22.684 20.8224 21.772 21.185 21.4177L21.8444 20.7734L22.2344 21.0199C22.4489 21.1554 22.9141 21.4126 23.2681 21.5916C25.9739 22.9593 28.4422 22.8674 31.3905 21.2894C31.988 20.9695 32.5283 20.7044 32.5915 20.7003C32.6546 20.6961 33.6 21.6231 34.6924 22.7606Z" fill="#2B4953"/>
</svg>
