<svg width="60" height="42" viewBox="0 0 60 42" fill="none" xmlns="http://www.w3.org/2000/svg">
<mask id="path-1-outside-1_302_53" maskUnits="userSpaceOnUse" x="0" y="0" width="60" height="42" fill="black">
<rect fill="white" width="60" height="42"/>
<path fill-rule="evenodd" clip-rule="evenodd" d="M27.2915 1.05532C26.6748 1.07309 23.9751 1.18737 21.2923 1.30918C18.6095 1.43099 15.5818 1.56067 14.5642 1.59734C9.57099 1.77719 6.80855 2.23653 4.73619 3.2316C2.60093 4.25692 1.59811 5.91121 1.87609 7.94993C1.94853 8.48126 1.92207 8.93015 1.76766 9.79115C1.18747 13.0257 0.99505 16.2526 1.0001 22.6644C1.00649 30.6744 1.16897 33.086 1.83494 35.0499C3.02401 38.5566 5.78476 40.2622 11.2314 40.8553C12.5736 41.0014 13.5977 41.0262 16.2366 40.9769C18.0613 40.9427 24.2218 40.8657 29.9267 40.806C36.3527 40.7386 41.7426 40.6265 44.0931 40.5111C47.7483 40.3317 47.8925 40.3324 48.036 40.5292C48.1773 40.7231 48.1987 40.7186 48.4537 40.4426C48.7075 40.1681 48.8012 40.148 50.1176 40.0867C51.5528 40.02 52.2145 39.8599 53.256 39.3272C54.6159 38.6317 55.7784 37.3209 56.4482 35.728C57.2717 33.7694 57.4767 32.3946 57.6219 27.8573C57.6784 26.0943 57.8891 21.4039 58.0902 17.434C58.3825 11.6682 58.4287 10.1635 58.3199 9.95446C58.2451 9.81049 58.082 9.28771 57.9574 8.79282C57.2997 6.1798 55.4312 3.86292 53.3347 3.06109C53.0417 2.94895 52.8013 2.80093 52.8004 2.73199C52.7956 2.38624 52.5321 2.29558 50.7713 2.03397C45.7592 1.28916 40.4755 0.973103 33.515 1.00178C30.7088 1.01337 27.9082 1.03744 27.2915 1.05532ZM37.5518 2.55383C41.7352 2.7114 50.5429 3.11586 51.1843 3.17975C51.6814 3.22935 51.8724 3.33283 52.6998 4.0007C53.6136 4.73832 54.753 5.80998 54.6853 5.86813C54.6671 5.88365 53.8197 5.85711 52.8021 5.80908C49.0505 5.63204 39.8284 6.10174 39.7044 6.47617C39.6608 6.60788 39.8444 6.6216 40.8167 6.55951C41.4571 6.51846 44.9205 6.45232 48.5131 6.41251C54.7516 6.34322 55.0553 6.3493 55.2728 6.54669C55.8213 7.04462 56.527 8.66606 56.911 10.3112C57.1056 11.1449 57.1973 13.3619 57.0436 13.5171C57.002 13.5592 56.346 13.539 55.5858 13.4723C51.4092 13.1062 45.9327 13.0643 40.0188 13.3529C37.3862 13.4815 36.5426 13.5573 36.5426 13.6655C36.5426 13.7074 39.936 13.7423 44.0836 13.7428C48.8813 13.7436 52.6036 13.7981 54.3156 13.8925C55.7956 13.9742 57.0187 14.0533 57.0337 14.0682C57.0862 14.1209 56.6793 19.2044 56.6141 19.3102C56.5778 19.3691 55.3395 19.4707 53.8621 19.5362C52.3848 19.6018 49.8429 19.7546 48.2132 19.876C46.5837 19.9972 45.2087 20.0966 45.1576 20.0966C45.1065 20.0966 45.0648 20.1523 45.0648 20.2204C45.0648 20.3091 45.8511 20.3238 47.8401 20.2719C51.106 20.1866 55.0523 20.0141 55.9844 19.9157L56.6435 19.8462L56.5752 20.5619C56.5375 20.9555 56.4741 21.6951 56.4341 22.2055L56.3615 23.1334H52.0316C48.0198 23.1334 42.9708 23.2773 41.8342 23.4241C41.1281 23.5153 41.29 23.7551 42.0473 23.7394C42.3809 23.7324 45.7415 23.6863 49.5153 23.6367L56.3767 23.5467L56.3244 24.8303C56.2955 25.5363 56.2437 26.7719 56.2092 27.5761L56.1465 29.0383L55.1751 28.963C54.6409 28.9215 52.4124 28.8512 50.223 28.8066C45.0437 28.7012 41.152 28.9199 35.9819 29.6064C33.5539 29.9289 33.3358 29.9724 33.4707 30.1067C33.5292 30.1649 34.3428 30.1184 35.4212 29.9953C40.0917 29.462 41.9992 29.3757 49.1241 29.3757C53.5184 29.3757 55.9672 29.4156 56.0337 29.4882C56.0963 29.5566 56.0875 30.0411 56.0112 30.7254L55.8858 31.8502L51.6247 31.9239C49.2811 31.9644 46.1778 32.0795 44.7284 32.1796C41.6692 32.3911 36.9564 32.8083 36.8883 32.8737C36.7017 33.0533 37.6331 33.0455 42.4605 32.8272C45.4656 32.6913 49.3371 32.53 51.064 32.4689C52.7909 32.4077 54.5642 32.3364 55.0045 32.3104L55.8054 32.2631L55.6464 32.9564C55.5589 33.3378 55.4385 33.8016 55.3786 33.9872L55.2698 34.3246L49.3544 34.3329C43.5411 34.3408 40.0363 34.4539 35.5894 34.777C32.3665 35.0111 31.9071 35.0626 32.021 35.1769C32.08 35.236 34.4985 35.2106 37.8922 35.1152C45.3847 34.9045 55.0448 34.7729 55.0448 34.8815C55.0448 34.9283 54.864 35.3116 54.6431 35.7333C53.8161 37.3119 52.4648 38.4263 50.7925 38.9087C50.1808 39.085 49.7003 39.1198 47.9803 39.112C46.8393 39.107 42.0961 39.1786 37.4397 39.2714C23.5972 39.5472 11.7726 39.4567 9.16203 39.0549C6.21267 38.6009 4.37781 37.377 3.31186 35.1526C2.49283 33.4432 2.3955 32.8067 2.41075 29.2633C2.41793 27.593 2.48857 24.7333 2.56774 22.9084C2.64702 21.0835 2.72517 17.0999 2.74155 14.056C2.7772 7.42456 2.74614 7.62859 3.89261 6.49023C5.92774 4.46916 10.2202 3.30685 17.8415 2.71309C22.5944 2.34282 30.298 2.28051 37.5518 2.55383ZM42.4857 9.26094C40.0458 9.36509 34.8025 9.88214 34.6516 10.0335C34.4782 10.2074 34.9437 10.2097 36.5677 10.043C42.3826 9.44618 48.2697 9.56687 54.379 10.4082C55.1753 10.5178 55.8852 10.5713 55.9567 10.527C56.459 10.2156 55.169 9.93568 51.3443 9.52638C48.9952 9.27488 44.9784 9.15454 42.4857 9.26094ZM22.8622 10.7636C22.2286 10.8739 21.9651 11.0675 21.9651 11.4227C21.9651 11.5966 21.8769 11.9111 21.7689 12.1216C21.5898 12.4711 21.5644 13.2388 21.4792 20.9312C21.4178 26.4757 21.4241 29.4419 21.4973 29.6033C21.5796 29.7845 21.7442 29.8672 22.1269 29.9198C22.5748 29.9814 22.8233 29.92 23.9591 29.467C25.5874 28.8175 28.8832 27.1436 30.5995 26.0943C31.9058 25.2956 34.2066 23.8141 37.528 21.6333C38.5325 20.9736 39.4204 20.434 39.501 20.434C39.9479 20.434 40.1823 19.5978 39.8225 19.287C39.5064 19.0138 33.894 15.8555 31.2723 14.4755C29.9463 13.7775 28.1541 12.8093 27.2897 12.324C24.9458 11.008 23.7928 10.6018 22.8622 10.7636ZM24.5255 12.557C25.1519 12.8642 26.1818 13.4148 26.8144 13.7803C27.4468 14.1458 28.5698 14.7494 29.3099 15.1214C30.7974 15.8693 37.4446 19.4943 37.5832 19.6332C37.6553 19.7055 32.2976 23.111 27.9082 25.7827C25.7873 27.0736 22.7007 28.8576 22.6594 28.8163C22.6363 28.793 22.675 26.9608 22.7457 24.7446C22.8224 22.3366 22.8424 19.2212 22.7957 17.0025C22.7526 14.9605 22.7536 12.9992 22.7979 12.6441C22.8691 12.0717 22.9073 11.9984 23.1325 11.9984C23.2723 11.9984 23.8992 12.2497 24.5255 12.557ZM40.243 16.5412C40.243 16.6999 40.4578 16.7223 41.978 16.7223C43.6739 16.7223 50.7633 16.8777 54.7452 17.0023C56.6169 17.0609 56.7418 17.0521 56.7064 16.8655C56.6482 16.5589 55.5988 16.5093 47.5037 16.4307C40.8743 16.3662 40.243 16.3758 40.243 16.5412ZM40.9358 26.133C40.1248 26.1615 39.6802 26.22 39.705 26.2947C39.7307 26.372 41.2106 26.4274 44.0584 26.458C46.4313 26.4836 49.6343 26.5551 51.1761 26.6171C55.2873 26.7822 55.6301 26.7759 55.5845 26.5358C55.5526 26.3681 55.3646 26.328 54.3148 26.2651C52.7722 26.1727 42.6465 26.0727 40.9358 26.133ZM47.9803 36.5265C41.3975 36.6588 35.2442 36.8385 24.9927 37.1974C19.7813 37.3799 15.4543 37.5294 15.3772 37.5297C15.3002 37.53 15.237 37.6109 15.237 37.7097C15.237 37.8705 15.4745 37.882 17.5078 37.8203C18.7566 37.7824 22.7304 37.7006 26.3383 37.6385C38.2029 37.4344 53.3013 36.9762 53.5658 36.8123C53.6769 36.7434 53.6799 36.6863 53.5787 36.5641C53.4904 36.4573 53.2413 36.4114 52.8165 36.4237C52.4693 36.4337 50.2931 36.4799 47.9803 36.5265Z"/>
</mask>
<path fill-rule="evenodd" clip-rule="evenodd" d="M27.2915 1.05532C26.6748 1.07309 23.9751 1.18737 21.2923 1.30918C18.6095 1.43099 15.5818 1.56067 14.5642 1.59734C9.57099 1.77719 6.80855 2.23653 4.73619 3.2316C2.60093 4.25692 1.59811 5.91121 1.87609 7.94993C1.94853 8.48126 1.92207 8.93015 1.76766 9.79115C1.18747 13.0257 0.99505 16.2526 1.0001 22.6644C1.00649 30.6744 1.16897 33.086 1.83494 35.0499C3.02401 38.5566 5.78476 40.2622 11.2314 40.8553C12.5736 41.0014 13.5977 41.0262 16.2366 40.9769C18.0613 40.9427 24.2218 40.8657 29.9267 40.806C36.3527 40.7386 41.7426 40.6265 44.0931 40.5111C47.7483 40.3317 47.8925 40.3324 48.036 40.5292C48.1773 40.7231 48.1987 40.7186 48.4537 40.4426C48.7075 40.1681 48.8012 40.148 50.1176 40.0867C51.5528 40.02 52.2145 39.8599 53.256 39.3272C54.6159 38.6317 55.7784 37.3209 56.4482 35.728C57.2717 33.7694 57.4767 32.3946 57.6219 27.8573C57.6784 26.0943 57.8891 21.4039 58.0902 17.434C58.3825 11.6682 58.4287 10.1635 58.3199 9.95446C58.2451 9.81049 58.082 9.28771 57.9574 8.79282C57.2997 6.1798 55.4312 3.86292 53.3347 3.06109C53.0417 2.94895 52.8013 2.80093 52.8004 2.73199C52.7956 2.38624 52.5321 2.29558 50.7713 2.03397C45.7592 1.28916 40.4755 0.973103 33.515 1.00178C30.7088 1.01337 27.9082 1.03744 27.2915 1.05532ZM37.5518 2.55383C41.7352 2.7114 50.5429 3.11586 51.1843 3.17975C51.6814 3.22935 51.8724 3.33283 52.6998 4.0007C53.6136 4.73832 54.753 5.80998 54.6853 5.86813C54.6671 5.88365 53.8197 5.85711 52.8021 5.80908C49.0505 5.63204 39.8284 6.10174 39.7044 6.47617C39.6608 6.60788 39.8444 6.6216 40.8167 6.55951C41.4571 6.51846 44.9205 6.45232 48.5131 6.41251C54.7516 6.34322 55.0553 6.3493 55.2728 6.54669C55.8213 7.04462 56.527 8.66606 56.911 10.3112C57.1056 11.1449 57.1973 13.3619 57.0436 13.5171C57.002 13.5592 56.346 13.539 55.5858 13.4723C51.4092 13.1062 45.9327 13.0643 40.0188 13.3529C37.3862 13.4815 36.5426 13.5573 36.5426 13.6655C36.5426 13.7074 39.936 13.7423 44.0836 13.7428C48.8813 13.7436 52.6036 13.7981 54.3156 13.8925C55.7956 13.9742 57.0187 14.0533 57.0337 14.0682C57.0862 14.1209 56.6793 19.2044 56.6141 19.3102C56.5778 19.3691 55.3395 19.4707 53.8621 19.5362C52.3848 19.6018 49.8429 19.7546 48.2132 19.876C46.5837 19.9972 45.2087 20.0966 45.1576 20.0966C45.1065 20.0966 45.0648 20.1523 45.0648 20.2204C45.0648 20.3091 45.8511 20.3238 47.8401 20.2719C51.106 20.1866 55.0523 20.0141 55.9844 19.9157L56.6435 19.8462L56.5752 20.5619C56.5375 20.9555 56.4741 21.6951 56.4341 22.2055L56.3615 23.1334H52.0316C48.0198 23.1334 42.9708 23.2773 41.8342 23.4241C41.1281 23.5153 41.29 23.7551 42.0473 23.7394C42.3809 23.7324 45.7415 23.6863 49.5153 23.6367L56.3767 23.5467L56.3244 24.8303C56.2955 25.5363 56.2437 26.7719 56.2092 27.5761L56.1465 29.0383L55.1751 28.963C54.6409 28.9215 52.4124 28.8512 50.223 28.8066C45.0437 28.7012 41.152 28.9199 35.9819 29.6064C33.5539 29.9289 33.3358 29.9724 33.4707 30.1067C33.5292 30.1649 34.3428 30.1184 35.4212 29.9953C40.0917 29.462 41.9992 29.3757 49.1241 29.3757C53.5184 29.3757 55.9672 29.4156 56.0337 29.4882C56.0963 29.5566 56.0875 30.0411 56.0112 30.7254L55.8858 31.8502L51.6247 31.9239C49.2811 31.9644 46.1778 32.0795 44.7284 32.1796C41.6692 32.3911 36.9564 32.8083 36.8883 32.8737C36.7017 33.0533 37.6331 33.0455 42.4605 32.8272C45.4656 32.6913 49.3371 32.53 51.064 32.4689C52.7909 32.4077 54.5642 32.3364 55.0045 32.3104L55.8054 32.2631L55.6464 32.9564C55.5589 33.3378 55.4385 33.8016 55.3786 33.9872L55.2698 34.3246L49.3544 34.3329C43.5411 34.3408 40.0363 34.4539 35.5894 34.777C32.3665 35.0111 31.9071 35.0626 32.021 35.1769C32.08 35.236 34.4985 35.2106 37.8922 35.1152C45.3847 34.9045 55.0448 34.7729 55.0448 34.8815C55.0448 34.9283 54.864 35.3116 54.6431 35.7333C53.8161 37.3119 52.4648 38.4263 50.7925 38.9087C50.1808 39.085 49.7003 39.1198 47.9803 39.112C46.8393 39.107 42.0961 39.1786 37.4397 39.2714C23.5972 39.5472 11.7726 39.4567 9.16203 39.0549C6.21267 38.6009 4.37781 37.377 3.31186 35.1526C2.49283 33.4432 2.3955 32.8067 2.41075 29.2633C2.41793 27.593 2.48857 24.7333 2.56774 22.9084C2.64702 21.0835 2.72517 17.0999 2.74155 14.056C2.7772 7.42456 2.74614 7.62859 3.89261 6.49023C5.92774 4.46916 10.2202 3.30685 17.8415 2.71309C22.5944 2.34282 30.298 2.28051 37.5518 2.55383ZM42.4857 9.26094C40.0458 9.36509 34.8025 9.88214 34.6516 10.0335C34.4782 10.2074 34.9437 10.2097 36.5677 10.043C42.3826 9.44618 48.2697 9.56687 54.379 10.4082C55.1753 10.5178 55.8852 10.5713 55.9567 10.527C56.459 10.2156 55.169 9.93568 51.3443 9.52638C48.9952 9.27488 44.9784 9.15454 42.4857 9.26094ZM22.8622 10.7636C22.2286 10.8739 21.9651 11.0675 21.9651 11.4227C21.9651 11.5966 21.8769 11.9111 21.7689 12.1216C21.5898 12.4711 21.5644 13.2388 21.4792 20.9312C21.4178 26.4757 21.4241 29.4419 21.4973 29.6033C21.5796 29.7845 21.7442 29.8672 22.1269 29.9198C22.5748 29.9814 22.8233 29.92 23.9591 29.467C25.5874 28.8175 28.8832 27.1436 30.5995 26.0943C31.9058 25.2956 34.2066 23.8141 37.528 21.6333C38.5325 20.9736 39.4204 20.434 39.501 20.434C39.9479 20.434 40.1823 19.5978 39.8225 19.287C39.5064 19.0138 33.894 15.8555 31.2723 14.4755C29.9463 13.7775 28.1541 12.8093 27.2897 12.324C24.9458 11.008 23.7928 10.6018 22.8622 10.7636ZM24.5255 12.557C25.1519 12.8642 26.1818 13.4148 26.8144 13.7803C27.4468 14.1458 28.5698 14.7494 29.3099 15.1214C30.7974 15.8693 37.4446 19.4943 37.5832 19.6332C37.6553 19.7055 32.2976 23.111 27.9082 25.7827C25.7873 27.0736 22.7007 28.8576 22.6594 28.8163C22.6363 28.793 22.675 26.9608 22.7457 24.7446C22.8224 22.3366 22.8424 19.2212 22.7957 17.0025C22.7526 14.9605 22.7536 12.9992 22.7979 12.6441C22.8691 12.0717 22.9073 11.9984 23.1325 11.9984C23.2723 11.9984 23.8992 12.2497 24.5255 12.557ZM40.243 16.5412C40.243 16.6999 40.4578 16.7223 41.978 16.7223C43.6739 16.7223 50.7633 16.8777 54.7452 17.0023C56.6169 17.0609 56.7418 17.0521 56.7064 16.8655C56.6482 16.5589 55.5988 16.5093 47.5037 16.4307C40.8743 16.3662 40.243 16.3758 40.243 16.5412ZM40.9358 26.133C40.1248 26.1615 39.6802 26.22 39.705 26.2947C39.7307 26.372 41.2106 26.4274 44.0584 26.458C46.4313 26.4836 49.6343 26.5551 51.1761 26.6171C55.2873 26.7822 55.6301 26.7759 55.5845 26.5358C55.5526 26.3681 55.3646 26.328 54.3148 26.2651C52.7722 26.1727 42.6465 26.0727 40.9358 26.133ZM47.9803 36.5265C41.3975 36.6588 35.2442 36.8385 24.9927 37.1974C19.7813 37.3799 15.4543 37.5294 15.3772 37.5297C15.3002 37.53 15.237 37.6109 15.237 37.7097C15.237 37.8705 15.4745 37.882 17.5078 37.8203C18.7566 37.7824 22.7304 37.7006 26.3383 37.6385C38.2029 37.4344 53.3013 36.9762 53.5658 36.8123C53.6769 36.7434 53.6799 36.6863 53.5787 36.5641C53.4904 36.4573 53.2413 36.4114 52.8165 36.4237C52.4693 36.4337 50.2931 36.4799 47.9803 36.5265Z" fill="#2B4953"/>
<path fill-rule="evenodd" clip-rule="evenodd" d="M27.2915 1.05532C26.6748 1.07309 23.9751 1.18737 21.2923 1.30918C18.6095 1.43099 15.5818 1.56067 14.5642 1.59734C9.57099 1.77719 6.80855 2.23653 4.73619 3.2316C2.60093 4.25692 1.59811 5.91121 1.87609 7.94993C1.94853 8.48126 1.92207 8.93015 1.76766 9.79115C1.18747 13.0257 0.99505 16.2526 1.0001 22.6644C1.00649 30.6744 1.16897 33.086 1.83494 35.0499C3.02401 38.5566 5.78476 40.2622 11.2314 40.8553C12.5736 41.0014 13.5977 41.0262 16.2366 40.9769C18.0613 40.9427 24.2218 40.8657 29.9267 40.806C36.3527 40.7386 41.7426 40.6265 44.0931 40.5111C47.7483 40.3317 47.8925 40.3324 48.036 40.5292C48.1773 40.7231 48.1987 40.7186 48.4537 40.4426C48.7075 40.1681 48.8012 40.148 50.1176 40.0867C51.5528 40.02 52.2145 39.8599 53.256 39.3272C54.6159 38.6317 55.7784 37.3209 56.4482 35.728C57.2717 33.7694 57.4767 32.3946 57.6219 27.8573C57.6784 26.0943 57.8891 21.4039 58.0902 17.434C58.3825 11.6682 58.4287 10.1635 58.3199 9.95446C58.2451 9.81049 58.082 9.28771 57.9574 8.79282C57.2997 6.1798 55.4312 3.86292 53.3347 3.06109C53.0417 2.94895 52.8013 2.80093 52.8004 2.73199C52.7956 2.38624 52.5321 2.29558 50.7713 2.03397C45.7592 1.28916 40.4755 0.973103 33.515 1.00178C30.7088 1.01337 27.9082 1.03744 27.2915 1.05532ZM37.5518 2.55383C41.7352 2.7114 50.5429 3.11586 51.1843 3.17975C51.6814 3.22935 51.8724 3.33283 52.6998 4.0007C53.6136 4.73832 54.753 5.80998 54.6853 5.86813C54.6671 5.88365 53.8197 5.85711 52.8021 5.80908C49.0505 5.63204 39.8284 6.10174 39.7044 6.47617C39.6608 6.60788 39.8444 6.6216 40.8167 6.55951C41.4571 6.51846 44.9205 6.45232 48.5131 6.41251C54.7516 6.34322 55.0553 6.3493 55.2728 6.54669C55.8213 7.04462 56.527 8.66606 56.911 10.3112C57.1056 11.1449 57.1973 13.3619 57.0436 13.5171C57.002 13.5592 56.346 13.539 55.5858 13.4723C51.4092 13.1062 45.9327 13.0643 40.0188 13.3529C37.3862 13.4815 36.5426 13.5573 36.5426 13.6655C36.5426 13.7074 39.936 13.7423 44.0836 13.7428C48.8813 13.7436 52.6036 13.7981 54.3156 13.8925C55.7956 13.9742 57.0187 14.0533 57.0337 14.0682C57.0862 14.1209 56.6793 19.2044 56.6141 19.3102C56.5778 19.3691 55.3395 19.4707 53.8621 19.5362C52.3848 19.6018 49.8429 19.7546 48.2132 19.876C46.5837 19.9972 45.2087 20.0966 45.1576 20.0966C45.1065 20.0966 45.0648 20.1523 45.0648 20.2204C45.0648 20.3091 45.8511 20.3238 47.8401 20.2719C51.106 20.1866 55.0523 20.0141 55.9844 19.9157L56.6435 19.8462L56.5752 20.5619C56.5375 20.9555 56.4741 21.6951 56.4341 22.2055L56.3615 23.1334H52.0316C48.0198 23.1334 42.9708 23.2773 41.8342 23.4241C41.1281 23.5153 41.29 23.7551 42.0473 23.7394C42.3809 23.7324 45.7415 23.6863 49.5153 23.6367L56.3767 23.5467L56.3244 24.8303C56.2955 25.5363 56.2437 26.7719 56.2092 27.5761L56.1465 29.0383L55.1751 28.963C54.6409 28.9215 52.4124 28.8512 50.223 28.8066C45.0437 28.7012 41.152 28.9199 35.9819 29.6064C33.5539 29.9289 33.3358 29.9724 33.4707 30.1067C33.5292 30.1649 34.3428 30.1184 35.4212 29.9953C40.0917 29.462 41.9992 29.3757 49.1241 29.3757C53.5184 29.3757 55.9672 29.4156 56.0337 29.4882C56.0963 29.5566 56.0875 30.0411 56.0112 30.7254L55.8858 31.8502L51.6247 31.9239C49.2811 31.9644 46.1778 32.0795 44.7284 32.1796C41.6692 32.3911 36.9564 32.8083 36.8883 32.8737C36.7017 33.0533 37.6331 33.0455 42.4605 32.8272C45.4656 32.6913 49.3371 32.53 51.064 32.4689C52.7909 32.4077 54.5642 32.3364 55.0045 32.3104L55.8054 32.2631L55.6464 32.9564C55.5589 33.3378 55.4385 33.8016 55.3786 33.9872L55.2698 34.3246L49.3544 34.3329C43.5411 34.3408 40.0363 34.4539 35.5894 34.777C32.3665 35.0111 31.9071 35.0626 32.021 35.1769C32.08 35.236 34.4985 35.2106 37.8922 35.1152C45.3847 34.9045 55.0448 34.7729 55.0448 34.8815C55.0448 34.9283 54.864 35.3116 54.6431 35.7333C53.8161 37.3119 52.4648 38.4263 50.7925 38.9087C50.1808 39.085 49.7003 39.1198 47.9803 39.112C46.8393 39.107 42.0961 39.1786 37.4397 39.2714C23.5972 39.5472 11.7726 39.4567 9.16203 39.0549C6.21267 38.6009 4.37781 37.377 3.31186 35.1526C2.49283 33.4432 2.3955 32.8067 2.41075 29.2633C2.41793 27.593 2.48857 24.7333 2.56774 22.9084C2.64702 21.0835 2.72517 17.0999 2.74155 14.056C2.7772 7.42456 2.74614 7.62859 3.89261 6.49023C5.92774 4.46916 10.2202 3.30685 17.8415 2.71309C22.5944 2.34282 30.298 2.28051 37.5518 2.55383ZM42.4857 9.26094C40.0458 9.36509 34.8025 9.88214 34.6516 10.0335C34.4782 10.2074 34.9437 10.2097 36.5677 10.043C42.3826 9.44618 48.2697 9.56687 54.379 10.4082C55.1753 10.5178 55.8852 10.5713 55.9567 10.527C56.459 10.2156 55.169 9.93568 51.3443 9.52638C48.9952 9.27488 44.9784 9.15454 42.4857 9.26094ZM22.8622 10.7636C22.2286 10.8739 21.9651 11.0675 21.9651 11.4227C21.9651 11.5966 21.8769 11.9111 21.7689 12.1216C21.5898 12.4711 21.5644 13.2388 21.4792 20.9312C21.4178 26.4757 21.4241 29.4419 21.4973 29.6033C21.5796 29.7845 21.7442 29.8672 22.1269 29.9198C22.5748 29.9814 22.8233 29.92 23.9591 29.467C25.5874 28.8175 28.8832 27.1436 30.5995 26.0943C31.9058 25.2956 34.2066 23.8141 37.528 21.6333C38.5325 20.9736 39.4204 20.434 39.501 20.434C39.9479 20.434 40.1823 19.5978 39.8225 19.287C39.5064 19.0138 33.894 15.8555 31.2723 14.4755C29.9463 13.7775 28.1541 12.8093 27.2897 12.324C24.9458 11.008 23.7928 10.6018 22.8622 10.7636ZM24.5255 12.557C25.1519 12.8642 26.1818 13.4148 26.8144 13.7803C27.4468 14.1458 28.5698 14.7494 29.3099 15.1214C30.7974 15.8693 37.4446 19.4943 37.5832 19.6332C37.6553 19.7055 32.2976 23.111 27.9082 25.7827C25.7873 27.0736 22.7007 28.8576 22.6594 28.8163C22.6363 28.793 22.675 26.9608 22.7457 24.7446C22.8224 22.3366 22.8424 19.2212 22.7957 17.0025C22.7526 14.9605 22.7536 12.9992 22.7979 12.6441C22.8691 12.0717 22.9073 11.9984 23.1325 11.9984C23.2723 11.9984 23.8992 12.2497 24.5255 12.557ZM40.243 16.5412C40.243 16.6999 40.4578 16.7223 41.978 16.7223C43.6739 16.7223 50.7633 16.8777 54.7452 17.0023C56.6169 17.0609 56.7418 17.0521 56.7064 16.8655C56.6482 16.5589 55.5988 16.5093 47.5037 16.4307C40.8743 16.3662 40.243 16.3758 40.243 16.5412ZM40.9358 26.133C40.1248 26.1615 39.6802 26.22 39.705 26.2947C39.7307 26.372 41.2106 26.4274 44.0584 26.458C46.4313 26.4836 49.6343 26.5551 51.1761 26.6171C55.2873 26.7822 55.6301 26.7759 55.5845 26.5358C55.5526 26.3681 55.3646 26.328 54.3148 26.2651C52.7722 26.1727 42.6465 26.0727 40.9358 26.133ZM47.9803 36.5265C41.3975 36.6588 35.2442 36.8385 24.9927 37.1974C19.7813 37.3799 15.4543 37.5294 15.3772 37.5297C15.3002 37.53 15.237 37.6109 15.237 37.7097C15.237 37.8705 15.4745 37.882 17.5078 37.8203C18.7566 37.7824 22.7304 37.7006 26.3383 37.6385C38.2029 37.4344 53.3013 36.9762 53.5658 36.8123C53.6769 36.7434 53.6799 36.6863 53.5787 36.5641C53.4904 36.4573 53.2413 36.4114 52.8165 36.4237C52.4693 36.4337 50.2931 36.4799 47.9803 36.5265Z" stroke="#2B4953" stroke-width="1.61616" mask="url(#path-1-outside-1_302_53)"/>
</svg>
